Coordinates
version=1
nRows=12
nColumns=34
inDegrees=yes

Units are S.I. units (second, meters, Newtons, ...)
If the header above contains a line with 'inDegrees', this indicates whether rotational values are in degrees (yes) or radians (no).

endheader
time	pelvis_tilt	pelvis_list	pelvis_rotation	pelvis_tx	pelvis_ty	pelvis_tz	hip_flexion_r	hip_adduction_r	hip_rotation_r	knee_angle_r	ankle_angle_r	subtalar_angle_r	mtp_angle_r	hip_flexion_l	hip_adduction_l	hip_rotation_l	knee_angle_l	ankle_angle_l	subtalar_angle_l	mtp_angle_l	lumbar_extension	lumbar_bending	lumbar_rotation	arm_flex_r	arm_add_r	arm_rot_r	elbow_flex_r	pro_sup_r	arm_flex_l	arm_add_l	arm_rot_l	elbow_flex_l	pro_sup_l
      3.98333330	    -11.28265924	     -2.30104279	      2.84849059	      0.39747352	      0.82902357	     -0.16073509	     65.91067285	     -1.45955294	      2.67765095	     20.82801995	      4.93734025	     -9.62244960	      0.00000000	     52.88596117	      2.22443275	     -5.30609529	     68.41844773	     26.71589073	     -2.61586944	      0.00000000	    -15.31051482	     -5.64586349	      1.94628425	     84.93899173	      5.30737519	     59.13216748	    128.63259997	     95.78517120	    108.11549204	      5.79457754	     80.07806129	    114.04008530	     67.61164000
      4.00000000	    -10.51823234	     -2.55680753	      2.30288097	      0.40026854	      0.84275589	     -0.16175612	     65.03847977	     -0.99349394	      1.60337041	     21.46760753	      4.96935412	     -9.19977213	      0.00000000	     50.50663641	      1.76145299	     -5.31615072	     66.07416643	     25.83805370	     -3.26127600	      0.00000000	    -15.20365086	     -5.14383654	      2.01889044	     84.46081376	      5.31082457	     59.00739428	    128.59315715	     95.80749806	    107.28668104	      5.59008132	     79.70662261	    114.01348730	     67.65327454
      4.01666670	     -9.79794014	     -2.87949489	      1.84358607	      0.40263899	      0.85511535	     -0.16253472	     64.27319046	     -0.60262988	      0.74024901	     22.31786782	      4.94368644	     -8.68978096	      0.00000000	     48.22220704	      1.34128441	     -5.21731436	     63.69389303	     25.20207215	     -3.51739074	      0.00000000	    -15.09754467	     -4.49411516	      2.11126673	     83.67744812	      4.95989537	     58.39880737	    128.84697545	     95.82079353	    106.19882054	      5.81521851	     79.34112187	    113.94724586	     67.69960312
      4.03333330	     -9.17877581	     -3.02717923	      1.53653317	      0.40513736	      0.86924798	     -0.16289495	     63.50693377	     -0.43801266	     -0.05063636	     22.93314247	      4.58308760	     -8.09400516	      0.00000000	     45.71145840	      1.23384278	     -5.06312130	     60.76081450	     23.93025576	     -3.95647678	      0.00000000	    -15.01330572	     -4.05582241	      2.29463599	     82.79609972	      4.85438567	     58.13122141	    128.60629778	     95.83842518	    105.18173325	      5.78119406	     79.17629330	    113.97842164	     67.75022375
      4.05000000	     -8.46246384	     -3.22434866	      1.45003282	      0.40742693	      0.88213103	     -0.16271004	     62.59620234	     -0.37650412	     -0.89826975	     23.62537214	      4.22737949	     -7.45209160	      0.00000000	     43.19610788	      1.16680484	     -4.81483614	     57.79479723	     22.63610301	     -4.50237746	      0.00000000	    -15.12627977	     -3.52605835	      2.08404857	     81.88923555	      4.86591819	     57.87298128	    127.93018715	     95.85222149	    104.31808820	      5.72265833	     78.91096905	    113.82555821	     67.78996716
      4.06666670	     -7.83479465	     -3.37816244	      1.25320712	      0.41023716	      0.89473732	     -0.16438907	     61.79988792	     -0.39775064	     -1.82363941	     24.33778005	      3.91057646	     -6.52397932	      0.00000000	     40.69817019	      1.13675021	     -4.71009948	     54.71063709	     21.31237307	     -4.97744275	      0.00000000	    -15.07228794	     -3.01174847	      1.98502376	     81.06367680	      5.05548278	     58.14375769	    127.56373973	     95.89083877	    103.32858661	      5.63253470	     78.82176955	    113.76279839	     67.84076294
      4.08333330	     -7.52325176	     -3.53171722	      0.93653388	      0.41348483	      0.90704143	     -0.16442728	     61.22820126	     -0.25680254	     -2.57752002	     25.03397274	      3.40646621	     -5.94975590	      0.00000000	     38.29800271	      1.04907161	     -4.59951173	     51.30618614	     20.07123907	     -5.05422941	      0.00000000	    -14.65982341	     -2.48900476	      1.93383226	     80.03235678	      5.06295326	     58.41598367	    127.53333222	     95.92663209	    102.11302180	      6.00891558	     79.00144661	    113.97752000	     67.88739591
      4.10000000	     -7.19881044	     -3.60326779	      0.56320819	      0.41428293	      0.91794567	     -0.16389741	     60.86463499	     -0.09581197	     -3.35185339	     26.15396349	      3.33703313	     -5.59096496	      0.00000000	     36.27920237	      0.92903827	     -4.60645846	     48.45030326	     18.60755960	     -5.13320160	      0.00000000	    -14.32094694	     -2.15034408	      2.05070365	     79.24454589	      5.23289223	     58.53860539	    127.66488969	     95.96693884	    100.96756457	      6.25958102	     78.93570794	    114.10784081	     67.92802403
      4.11666670	     -6.76742714	     -3.70542915	      0.19494226	      0.41909770	      0.92826926	     -0.16514307	     60.39308971	      0.07192569	     -4.03986138	     27.33922578	      3.70221091	     -5.11339840	      0.00000000	     34.12254989	      0.84943834	     -4.56829539	     45.74118695	     17.29006350	     -5.50167871	      0.00000000	    -13.81055868	     -1.66377818	      2.34010896	     78.26629956	      5.09549670	     58.43171549	    127.68944737	     96.03157326	     99.57197574	      6.46129612	     78.53113736	    114.18571810	     67.98558437
      4.13333330	     -6.61762577	     -3.95411385	     -0.12770772	      0.41905744	      0.94060678	     -0.16699061	     60.04205414	      0.22254029	     -4.77772746	     28.20928536	      3.53234198	     -4.48826358	      0.00000000	     32.67667731	      0.55115835	     -4.86247259	     43.40709000	     15.91985677	     -4.81794931	      0.00000000	    -13.28498692	     -1.10596483	      2.15061152	     77.35302716	      5.34124502	     58.47471698	    127.73656621	     96.09364387	     98.51195940	      6.67539486	     78.42361266	    114.13403941	     68.03677010
      4.15000000	     -6.11094544	     -4.32498046	     -0.44977862	      0.42206215	      0.95278787	     -0.16703646	     58.98228051	      0.50067241	     -5.65497973	     28.37684940	      3.32129690	     -3.49607152	      0.00000000	     30.09833542	      0.30201987	     -4.75971975	     39.90772363	     14.48084732	     -4.98340430	      0.00000000	    -12.81755230	     -0.30362414	      2.31581284	     76.05658680	      5.27647507	     57.87432604	    127.41082383	     96.14872892	     97.02673088	      6.46500960	     78.07733769	    113.99453432	     68.08075871
      4.16666670	     -6.05550299	     -4.83783943	     -1.13107732	      0.42544021	      0.96210090	     -0.16603227	     58.41361395	      1.17387617	     -6.60701921	     28.61028168	      2.40203395	     -2.94250143	      0.00000000	     27.93643033	     -0.36471889	     -4.89169811	     36.45399433	     13.12070428	     -4.63012562	      0.00000000	    -11.91216202	      0.18315264	      2.46464175	     74.88908133	      5.72662066	     58.15158597	    127.33964489	     96.17167571	     95.80550225	      6.18701337	     78.39363696	    113.87578972	     68.09001419
